<svg xmlns="http://www.w3.org/2000/svg" width="200" height="200" viewBox="0 0 200 200">
  <defs>
    <pattern id="leopard" x="0" y="0" width="200" height="200" patternUnits="userSpaceOnUse">
      <!-- Leopard rosettes - irregular organic spots -->
      <ellipse cx="30" cy="25" rx="12" ry="9" fill="none" stroke="currentColor" stroke-width="2.5" opacity="0.6" transform="rotate(-15 30 25)"/>
      <ellipse cx="32" cy="26" rx="5" ry="4" fill="currentColor" opacity="0.3" transform="rotate(-15 32 26)"/>

      <ellipse cx="90" cy="15" rx="10" ry="7" fill="none" stroke="currentColor" stroke-width="2" opacity="0.5" transform="rotate(10 90 15)"/>
      <ellipse cx="91" cy="16" rx="4" ry="3" fill="currentColor" opacity="0.25" transform="rotate(10 91 16)"/>

      <ellipse cx="155" cy="30" rx="13" ry="8" fill="none" stroke="currentColor" stroke-width="2.5" opacity="0.55" transform="rotate(-25 155 30)"/>
      <ellipse cx="156" cy="31" rx="5" ry="3.5" fill="currentColor" opacity="0.28" transform="rotate(-25 156 31)"/>

      <ellipse cx="60" cy="65" rx="11" ry="8" fill="none" stroke="currentColor" stroke-width="2" opacity="0.5" transform="rotate(20 60 65)"/>
      <ellipse cx="61" cy="66" rx="4.5" ry="3" fill="currentColor" opacity="0.22" transform="rotate(20 61 66)"/>

      <ellipse cx="130" cy="70" rx="14" ry="9" fill="none" stroke="currentColor" stroke-width="2.5" opacity="0.6" transform="rotate(-10 130 70)"/>
      <ellipse cx="131" cy="71" rx="6" ry="4" fill="currentColor" opacity="0.3" transform="rotate(-10 131 71)"/>

      <ellipse cx="20" cy="110" rx="10" ry="7" fill="none" stroke="currentColor" stroke-width="2" opacity="0.45" transform="rotate(15 20 110)"/>
      <ellipse cx="21" cy="111" rx="4" ry="3" fill="currentColor" opacity="0.2" transform="rotate(15 21 111)"/>

      <ellipse cx="85" cy="120" rx="12" ry="8" fill="none" stroke="currentColor" stroke-width="2.5" opacity="0.55" transform="rotate(-20 85 120)"/>
      <ellipse cx="86" cy="121" rx="5" ry="3.5" fill="currentColor" opacity="0.27" transform="rotate(-20 86 121)"/>

      <ellipse cx="160" cy="105" rx="11" ry="7.5" fill="none" stroke="currentColor" stroke-width="2" opacity="0.5" transform="rotate(5 160 105)"/>
      <ellipse cx="161" cy="106" rx="4.5" ry="3" fill="currentColor" opacity="0.23" transform="rotate(5 161 106)"/>

      <ellipse cx="45" cy="165" rx="13" ry="9" fill="none" stroke="currentColor" stroke-width="2.5" opacity="0.58" transform="rotate(-30 45 165)"/>
      <ellipse cx="46" cy="166" rx="5.5" ry="4" fill="currentColor" opacity="0.3" transform="rotate(-30 46 166)"/>

      <ellipse cx="120" cy="160" rx="10" ry="7" fill="none" stroke="currentColor" stroke-width="2" opacity="0.48" transform="rotate(12 120 160)"/>
      <ellipse cx="121" cy="161" rx="4" ry="3" fill="currentColor" opacity="0.22" transform="rotate(12 121 161)"/>

      <ellipse cx="180" cy="170" rx="11" ry="8" fill="none" stroke="currentColor" stroke-width="2.5" opacity="0.52" transform="rotate(-8 180 170)"/>
      <ellipse cx="181" cy="171" rx="4.5" ry="3.5" fill="currentColor" opacity="0.25" transform="rotate(-8 181 171)"/>

      <!-- Small scattered dots -->
      <circle cx="15" cy="50" r="2.5" fill="currentColor" opacity="0.35"/>
      <circle cx="110" cy="45" r="2" fill="currentColor" opacity="0.3"/>
      <circle cx="175" cy="60" r="2.5" fill="currentColor" opacity="0.32"/>
      <circle cx="40" cy="90" r="2" fill="currentColor" opacity="0.28"/>
      <circle cx="100" cy="95" r="2.5" fill="currentColor" opacity="0.35"/>
      <circle cx="150" cy="140" r="2" fill="currentColor" opacity="0.3"/>
      <circle cx="75" cy="185" r="2.5" fill="currentColor" opacity="0.33"/>
      <circle cx="190" cy="130" r="2" fill="currentColor" opacity="0.28"/>
      <circle cx="5" cy="145" r="2" fill="currentColor" opacity="0.25"/>
      <circle cx="185" cy="10" r="2" fill="currentColor" opacity="0.3"/>
    </pattern>
  </defs>
  <rect width="200" height="200" fill="url(#leopard)"/>
</svg>